<svg xmlns="http://www.w3.org/2000/svg" viewBox="0 0 128 112" role="img" aria-label="Símbolo Validi"><defs><linearGradient id="orange" x1="0" y1="0" x2="1" y2="1"><stop offset="0" stop-color="#FDBA2D"/><stop offset="1" stop-color="#F97316"/></linearGradient><linearGradient id="green" x1="0" y1="0" x2="1" y2="1"><stop offset="0" stop-color="#A3E635"/><stop offset="1" stop-color="#65A30D"/></linearGradient></defs><path d="M24 38c-7-9-3-22 8-25 7-2 14 1 18 7l18 29 14-22c4-7 13-9 20-5 7 5 9 14 4 21L76 89c-5 8-17 8-22 0L24 38Z" fill="url(#orange)"/><path d="M64 23c13-16 31-18 42-15-1 15-8 31-29 38-6 2-12-2-13-8-1-5-1-10 0-15Z" fill="url(#green)"/><path d="M71 39c7-8 15-15 26-22" stroke="#3F6212" stroke-width="3" stroke-linecap="round" fill="none" opacity=".45"/></svg>